<?xml version="1.0" encoding="UTF-8" standalone="no"?>
<!DOCTYPE svg PUBLIC "-//W3C//DTD SVG 1.1//EN" "http://www.w3.org/Graphics/SVG/1.1/DTD/svg11.dtd">
<svg version="1.1" xmlns="http://www.w3.org/2000/svg" xmlns:xlink="http://www.w3.org/1999/xlink" preserveAspectRatio="xMidYMid meet" viewBox="0 0 1024 500" width="1024" height="500"><defs><path d="M0 0L1024 0L1024 500.01L0 500.01L0 0Z" id="e3IyW5oMrG"></path><radialGradient id="gradientfumxvkd7H" gradientUnits="userSpaceOnUse" cx="531.7" cy="237.88" r="439.46"><stop style="stop-color: #ffffff;stop-opacity: 1" offset="0%"></stop><stop style="stop-color: #b3b3b3;stop-opacity: 1" offset="100%"></stop></radialGradient><path d="M553 175.01L703 175.01L703 325.01L553 325.01L553 175.01Z" id="c36xEGKCAH"></path><path d="M191 175.01L341 175.01L341 325.01L191 325.01L191 175.01Z" id="b1bxZGB7Pt"></path><path d="M734 175.01L884 175.01L884 325.01L734 325.01L734 175.01Z" id="j2ptuzm1YX"></path><path d="M373 175.01L523 175.01L523 325.01L373 325.01L373 175.01Z" id="bwkLQgaAr"></path><path d="M181 165L331 165L331 315L181 315L181 165Z" id="b2bqUxR1un"></path><path d="M363 165L513 165L513 315L363 315L363 165Z" id="akc4E2CC8"></path><path d="M543 165L693 165L693 315L543 315L543 165Z" id="a6gAxE686r"></path><path d="M724 165L874 165L874 315L724 315L724 165Z" id="ajtKHQTJh"></path></defs><g><g><g><use xlink:href="#e3IyW5oMrG" opacity="1" fill="#363636" fill-opacity="1"></use><use xlink:href="#e3IyW5oMrG" opacity="1" fill="url(#gradientfumxvkd7H)"></use><g><use xlink:href="#e3IyW5oMrG" opacity="1" fill-opacity="0" stroke="#ffffff" stroke-width="1" stroke-opacity="1"></use></g></g><g><use xlink:href="#c36xEGKCAH" opacity="1" fill="#363636" fill-opacity="1"></use></g><g><use xlink:href="#b1bxZGB7Pt" opacity="1" fill="#363636" fill-opacity="1"></use></g><g><use xlink:href="#j2ptuzm1YX" opacity="1" fill="#363636" fill-opacity="1"></use></g><g><use xlink:href="#bwkLQgaAr" opacity="1" fill="#363636" fill-opacity="1"></use></g><g><use xlink:href="#b2bqUxR1un" opacity="1" fill="#b2ff89" fill-opacity="1"></use></g><g><use xlink:href="#akc4E2CC8" opacity="1" fill="#fff091" fill-opacity="1"></use></g><g><use xlink:href="#a6gAxE686r" opacity="1" fill="#ff9ec8" fill-opacity="1"></use></g><g><use xlink:href="#ajtKHQTJh" opacity="1" fill="#daa8ff" fill-opacity="1"></use></g></g></g></svg>