<svg width="51" height="17" viewBox="0 0 51 17" fill="none" xmlns="http://www.w3.org/2000/svg">
<path d="M10.736 9.006C10.736 8.97 10.808 8.85 10.952 8.646C11.096 8.43 11.198 8.322 11.258 8.322C11.342 8.322 11.468 8.412 11.636 8.592C11.816 8.76 11.942 8.928 12.014 9.096L12.212 9.474L12.014 9.708C11.882 9.876 11.774 9.996 11.69 10.068C11.606 10.128 11.396 10.326 11.06 10.662C10.724 10.998 10.448 11.25 10.232 11.418C10.016 11.574 9.836 11.724 9.692 11.868C9.584 11.964 9.398 12.102 9.134 12.282C8.882 12.462 8.732 12.552 8.684 12.552C8.66 12.552 8.552 12.63 8.36 12.786C8.168 12.93 7.904 13.092 7.568 13.272C7.232 13.44 7.016 13.524 6.92 13.524C6.8 13.524 6.728 13.5 6.704 13.452C6.68 13.404 6.848 13.212 7.208 12.876C7.568 12.528 8 12.162 8.504 11.778C8.588 11.706 8.894 11.346 9.422 10.698L9.98 10.014C10.484 9.414 10.736 9.078 10.736 9.006ZM10.898 2.382C11.15 2.31 11.342 2.286 11.474 2.31C11.618 2.334 11.828 2.406 12.104 2.526C12.332 2.646 12.482 2.754 12.554 2.85C12.638 2.946 12.692 3.102 12.716 3.318C12.752 3.702 12.548 4.002 12.104 4.218C11.888 4.338 11.588 4.566 11.204 4.902L10.25 5.766C9.986 5.982 9.854 6.108 9.854 6.144C9.854 6.18 10.148 6.192 10.736 6.18C11.336 6.156 11.798 6.186 12.122 6.27C13.034 6.534 13.688 6.756 14.084 6.936C14.288 7.02 14.504 7.164 14.732 7.368C14.972 7.572 15.146 7.758 15.254 7.926C15.446 8.178 15.548 8.394 15.56 8.574C15.572 8.754 15.524 9.036 15.416 9.42C15.284 9.9 15.194 10.188 15.146 10.284C15.074 10.464 14.984 10.722 14.876 11.058C14.78 11.394 14.732 11.598 14.732 11.67C14.732 11.754 14.69 11.85 14.606 11.958C14.534 12.066 14.498 12.174 14.498 12.282C14.498 12.378 14.462 12.498 14.39 12.642C14.15 13.122 14.03 13.422 14.03 13.542C14.03 13.614 13.946 13.728 13.778 13.884C13.622 14.04 13.544 14.136 13.544 14.172C13.544 14.208 13.268 14.496 12.716 15.036C12.176 15.576 11.852 15.888 11.744 15.972C11.624 16.044 11.456 16.104 11.24 16.152C11.036 16.2 10.874 16.242 10.754 16.278C10.646 16.314 10.592 16.29 10.592 16.206C10.592 16.146 10.46 15.948 10.196 15.612C9.932 15.276 9.764 15.09 9.692 15.054C9.644 15.042 9.632 15 9.656 14.928C9.692 14.868 9.656 14.718 9.548 14.478C9.452 14.238 9.356 14.07 9.26 13.974C9.164 13.878 9.128 13.818 9.152 13.794C9.176 13.77 9.362 13.794 9.71 13.866C10.07 13.938 10.394 13.956 10.682 13.92C10.862 13.872 11.006 13.818 11.114 13.758C11.222 13.686 11.408 13.518 11.672 13.254C12.536 12.354 13.106 10.932 13.382 8.988C13.418 8.7 13.43 8.508 13.418 8.412C13.418 8.304 13.388 8.208 13.328 8.124C13.184 7.896 12.83 7.698 12.266 7.53C11.714 7.35 11.192 7.278 10.7 7.314C10.256 7.326 10.016 7.35 9.98 7.386C9.944 7.422 10.034 7.56 10.25 7.8C10.502 8.076 10.646 8.268 10.682 8.376C10.718 8.484 10.664 8.598 10.52 8.718C10.112 9.09 9.638 9.426 9.098 9.726C8.81 9.882 8.6 10.02 8.468 10.14C8.24 10.356 7.844 10.632 7.28 10.968C6.728 11.304 6.356 11.502 6.164 11.562C6.02 11.586 5.948 11.568 5.948 11.508C5.948 11.448 6.266 11.082 6.902 10.41C7.55 9.738 7.874 9.384 7.874 9.348C7.874 9.312 8.054 9.102 8.414 8.718C9.05 8.046 9.344 7.692 9.296 7.656C9.272 7.62 9.158 7.638 8.954 7.71C8.75 7.77 8.618 7.824 8.558 7.872C8.414 8.016 8.222 8.124 7.982 8.196C7.754 8.268 7.586 8.274 7.478 8.214C7.346 8.142 7.352 8.04 7.496 7.908C7.568 7.824 7.616 7.71 7.64 7.566C7.664 7.302 7.868 6.942 8.252 6.486L8.9 5.694L9.422 5.046C9.614 4.842 9.8 4.614 9.98 4.362C10.172 4.098 10.268 3.948 10.268 3.912C10.268 3.804 10.01 3.876 9.494 4.128C9.086 4.32 8.804 4.416 8.648 4.416C8.492 4.404 8.354 4.278 8.234 4.038C8.15 3.882 8.054 3.744 7.946 3.624C7.838 3.492 7.814 3.396 7.874 3.336C7.898 3.276 8.192 3.156 8.756 2.976C9.332 2.784 9.776 2.652 10.088 2.58C10.34 2.52 10.61 2.454 10.898 2.382ZM4.148 1.338C4.22 1.158 4.274 1.05 4.31 1.014C4.346 0.978 4.43 0.971999 4.562 0.995999C4.718 1.032 4.91 1.128 5.138 1.284C5.378 1.428 5.522 1.56 5.57 1.68C5.63 1.788 5.624 2.172 5.552 2.832C5.48 3.48 5.438 3.864 5.426 3.984C5.402 4.08 5.432 4.128 5.516 4.128C5.588 4.14 5.774 4.134 6.074 4.11C6.422 4.086 6.638 4.086 6.722 4.11C6.806 4.122 6.908 4.182 7.028 4.29C7.316 4.53 7.364 4.872 7.172 5.316C7.1 5.508 7.01 5.622 6.902 5.658C6.794 5.694 6.596 5.682 6.308 5.622C5.66 5.49 5.366 5.55 5.426 5.802C5.498 6.042 5.528 6.216 5.516 6.324C5.504 6.432 5.432 6.57 5.3 6.738C5.024 7.122 4.964 7.428 5.12 7.656C5.168 7.716 5.33 7.782 5.606 7.854C5.834 7.902 6.062 7.998 6.29 8.142C6.518 8.274 6.668 8.406 6.74 8.538C6.992 8.994 6.848 9.39 6.308 9.726C6.2 9.798 6.074 9.828 5.93 9.816C5.786 9.804 5.714 9.75 5.714 9.654C5.714 9.57 5.642 9.486 5.498 9.402C5.39 9.342 5.324 9.324 5.3 9.348C5.276 9.36 5.234 9.438 5.174 9.582C5.066 9.774 4.994 10.194 4.958 10.842C4.922 11.478 4.874 11.946 4.814 12.246C4.754 12.534 4.73 13.062 4.742 13.83C4.742 14.346 4.73 14.682 4.706 14.838C4.682 14.982 4.634 15.12 4.562 15.252L4.148 15.882C3.956 16.218 3.812 16.332 3.716 16.224C3.704 16.212 3.698 16.182 3.698 16.134C3.698 16.086 3.614 15.888 3.446 15.54C3.302 15.24 3.218 14.952 3.194 14.676C3.182 14.388 3.212 13.776 3.284 12.84C3.332 12.276 3.368 11.742 3.392 11.238C3.428 10.722 3.446 10.308 3.446 9.996C3.446 9.684 3.428 9.528 3.392 9.528C3.344 9.528 3.284 9.588 3.212 9.708C3.08 9.888 2.84 10.146 2.492 10.482C2.144 10.818 1.814 11.1 1.502 11.328C1.286 11.484 1.124 11.622 1.016 11.742C0.92 11.85 0.794 11.946 0.638 12.03C0.506 12.09 0.434 12.09 0.422 12.03C0.422 11.946 0.494 11.808 0.638 11.616C0.794 11.424 0.896 11.286 0.944 11.202C0.992 11.106 1.172 10.83 1.484 10.374C1.808 9.918 2 9.642 2.06 9.546C2.12 9.45 2.258 9.24 2.474 8.916C2.702 8.58 2.816 8.4 2.816 8.376C2.816 8.352 2.894 8.226 3.05 7.998C3.23 7.722 3.398 7.392 3.554 7.008C3.71 6.612 3.788 6.336 3.788 6.18C3.788 5.94 3.752 5.802 3.68 5.766C3.62 5.73 3.452 5.748 3.176 5.82C2.72 5.928 2.396 6.084 2.204 6.288C2.06 6.408 1.922 6.45 1.79 6.414C1.67 6.378 1.568 6.27 1.484 6.09C1.412 5.91 1.412 5.724 1.484 5.532C1.568 5.28 2.054 5.034 2.942 4.794C3.422 4.674 3.68 4.59 3.716 4.542C3.764 4.482 3.788 4.332 3.788 4.092C3.788 3.756 3.83 3.264 3.914 2.616C3.998 1.956 4.076 1.53 4.148 1.338ZM24.92 6.198C25.112 5.79 25.232 5.586 25.28 5.586C25.34 5.586 25.424 5.52 25.532 5.388C25.64 5.244 25.706 5.172 25.73 5.172C25.766 5.172 25.814 5.31 25.874 5.586C25.946 5.85 25.994 6.114 26.018 6.378C26.066 6.678 26.114 6.852 26.162 6.9C26.282 7.032 26.294 7.35 26.198 7.854C26.102 8.346 25.958 8.706 25.766 8.934C25.67 9.042 25.544 9.078 25.388 9.042C25.232 9.006 25.076 8.904 24.92 8.736L24.632 8.448V7.62C24.632 7.2 24.644 6.936 24.668 6.828C24.692 6.708 24.776 6.498 24.92 6.198ZM21.842 4.596C21.914 4.536 21.962 4.506 21.986 4.506C22.01 4.506 22.058 4.542 22.13 4.614C22.238 4.722 22.352 4.86 22.472 5.028C22.568 5.196 22.676 5.334 22.796 5.442C22.916 5.538 22.994 5.568 23.03 5.532C23.078 5.496 23.258 5.478 23.57 5.478C23.894 5.478 24.086 5.496 24.146 5.532C24.206 5.556 24.278 5.688 24.362 5.928C24.458 6.168 24.482 6.336 24.434 6.432C24.362 6.552 24.296 6.624 24.236 6.648C24.176 6.672 24.044 6.684 23.84 6.684C23.624 6.684 23.408 6.708 23.192 6.756C23.012 6.816 22.898 6.888 22.85 6.972C22.814 7.056 22.79 7.32 22.778 7.764L22.76 8.412L23.012 8.394C23.18 8.394 23.372 8.424 23.588 8.484C23.804 8.532 24.008 8.568 24.2 8.592C24.416 8.628 24.566 8.754 24.65 8.97C24.734 9.174 24.77 9.522 24.758 10.014C24.758 10.17 24.722 10.29 24.65 10.374C24.59 10.446 24.47 10.512 24.29 10.572L24.02 10.662L23.588 10.248C23.324 9.96 23.102 9.738 22.922 9.582C22.766 9.426 22.676 9.372 22.652 9.42C22.652 9.432 22.64 9.462 22.616 9.51C22.544 9.906 22.496 10.902 22.472 12.498C22.46 13.398 22.412 14.052 22.328 14.46C22.256 14.856 22.1 15.252 21.86 15.648C21.704 15.924 21.548 15.942 21.392 15.702C21.308 15.57 21.236 15.318 21.176 14.946C21.116 14.562 21.11 14.304 21.158 14.172C21.206 14.052 21.242 13.362 21.266 12.102C21.29 10.83 21.272 10.194 21.212 10.194C21.152 10.194 20.792 10.536 20.132 11.22C19.724 11.64 19.418 11.934 19.214 12.102C19.01 12.27 18.758 12.438 18.458 12.606C17.99 12.882 17.744 13.02 17.72 13.02C17.708 13.008 17.702 12.99 17.702 12.966C17.702 12.942 17.744 12.87 17.828 12.75C17.912 12.618 18.02 12.462 18.152 12.282C18.284 12.102 18.464 11.856 18.692 11.544C19.328 10.692 19.688 10.182 19.772 10.014C19.868 9.834 19.94 9.708 19.988 9.636C20.036 9.564 20.072 9.492 20.096 9.42C20.12 9.348 20.18 9.24 20.276 9.096C20.42 8.88 20.588 8.568 20.78 8.16C20.984 7.74 21.074 7.518 21.05 7.494C21.026 7.47 20.786 7.596 20.33 7.872C19.874 8.148 19.55 8.358 19.358 8.502C19.154 8.682 18.986 8.772 18.854 8.772C18.722 8.772 18.554 8.724 18.35 8.628C18.146 8.532 18.044 8.454 18.044 8.394C18.008 8.142 18.044 7.932 18.152 7.764C18.2 7.692 18.704 7.41 19.664 6.918C20.636 6.426 21.176 6.18 21.284 6.18C21.332 6.18 21.38 6.114 21.428 5.982C21.476 5.85 21.5 5.7 21.5 5.532C21.5 5.364 21.536 5.214 21.608 5.082C21.68 4.95 21.716 4.86 21.716 4.812C21.716 4.764 21.758 4.692 21.842 4.596ZM27.206 2.49C27.422 2.418 27.536 2.376 27.548 2.364C27.608 2.364 27.8 2.538 28.124 2.886L28.358 3.138L28.394 4.02C28.406 4.596 28.388 5.046 28.34 5.37C28.22 6.138 28.202 6.522 28.286 6.522C28.322 6.522 28.472 6.402 28.736 6.162C29.6 5.262 30.098 4.722 30.23 4.542C30.29 4.446 30.392 4.386 30.536 4.362C30.68 4.326 30.818 4.344 30.95 4.416C31.094 4.488 31.166 4.548 31.166 4.596C31.166 4.632 31.256 4.746 31.436 4.938L31.724 5.226L31.616 5.478C31.568 5.598 31.478 5.724 31.346 5.856C31.226 5.976 31.124 6.036 31.04 6.036C31.016 6.036 30.896 6.108 30.68 6.252C30.464 6.396 30.026 6.624 29.366 6.936C28.838 7.2 28.496 7.38 28.34 7.476C28.196 7.572 28.124 7.668 28.124 7.764C28.124 7.86 28.25 8.088 28.502 8.448C28.85 8.988 29.078 9.372 29.186 9.6C29.294 9.792 29.456 10.014 29.672 10.266C29.888 10.518 30.026 10.692 30.086 10.788C30.398 11.184 31.436 11.892 33.2 12.912C33.548 13.104 33.782 13.248 33.902 13.344C34.022 13.44 34.118 13.578 34.19 13.758C34.274 13.914 34.304 14.016 34.28 14.064C34.256 14.112 34.178 14.142 34.046 14.154C33.326 14.226 32.756 14.358 32.336 14.55C31.964 14.73 31.724 14.808 31.616 14.784C31.436 14.748 31.022 14.454 30.374 13.902C29.738 13.338 29.288 12.888 29.024 12.552C28.64 12.072 28.31 11.604 28.034 11.148C27.758 10.68 27.62 10.386 27.62 10.266C27.62 10.098 27.56 10.086 27.44 10.23C27.38 10.29 27.326 10.38 27.278 10.5C27.05 10.932 26.612 11.58 25.964 12.444C25.604 12.936 25.31 13.29 25.082 13.506C24.866 13.722 24.626 13.932 24.362 14.136C24.17 14.244 23.918 14.376 23.606 14.532C23.294 14.676 23.096 14.748 23.012 14.748C22.868 14.748 22.892 14.61 23.084 14.334C23.144 14.286 23.198 14.232 23.246 14.172C23.45 13.956 23.708 13.662 24.02 13.29C24.344 12.918 24.578 12.66 24.722 12.516C25.226 11.976 25.778 10.656 26.378 8.556C26.45 8.292 26.552 7.728 26.684 6.864C26.828 6 26.9 5.166 26.9 4.362C26.9 4.29 26.9 4.176 26.9 4.02C26.888 3.312 26.888 2.892 26.9 2.76C26.924 2.628 27.008 2.544 27.152 2.508C27.176 2.496 27.194 2.49 27.206 2.49ZM22.526 1.518C22.61 1.434 22.676 1.398 22.724 1.41C22.772 1.422 22.898 1.5 23.102 1.644C23.306 1.788 23.432 1.86 23.48 1.86C23.54 1.86 23.636 1.944 23.768 2.112C23.9 2.268 23.936 2.4 23.876 2.508C23.828 2.604 23.816 2.652 23.84 2.652C23.876 2.652 23.804 2.76 23.624 2.976C23.444 3.192 23.324 3.3 23.264 3.3C23.216 3.3 23.144 3.342 23.048 3.426C22.58 3.846 22.004 4.176 21.32 4.416C20.228 4.764 19.64 4.872 19.556 4.74C19.52 4.68 19.556 4.584 19.664 4.452C19.772 4.32 19.892 4.212 20.024 4.128C20.216 4.044 20.444 3.888 20.708 3.66C20.972 3.42 21.182 3.198 21.338 2.994C21.446 2.85 21.608 2.658 21.824 2.418C22.052 2.166 22.202 1.98 22.274 1.86C22.346 1.74 22.43 1.626 22.526 1.518ZM39.842 7.764C39.926 7.668 39.974 7.596 39.986 7.548C40.01 7.5 40.13 7.332 40.346 7.044C40.562 6.756 40.7 6.606 40.76 6.594C40.796 6.594 40.886 6.672 41.03 6.828C41.186 6.972 41.288 7.098 41.336 7.206C41.396 7.314 41.396 7.452 41.336 7.62C41.276 7.788 41.222 7.896 41.174 7.944C41.126 7.992 41.06 8.016 40.976 8.016C40.868 8.016 40.742 8.094 40.598 8.25C40.418 8.454 40.082 8.676 39.59 8.916C39.398 9.012 39.242 9.108 39.122 9.204C39.002 9.288 38.912 9.33 38.852 9.33C38.804 9.33 38.774 9.294 38.762 9.222C38.762 9.15 38.786 9.084 38.834 9.024L39.302 8.43L39.842 7.764ZM44.648 6.522C44.768 6.486 44.894 6.48 45.026 6.504C45.17 6.516 45.44 6.588 45.836 6.72C46.64 6.996 47.042 7.26 47.042 7.512C47.042 7.644 46.97 7.812 46.826 8.016C46.694 8.208 46.574 8.322 46.466 8.358C46.382 8.382 46.286 8.364 46.178 8.304C46.082 8.244 45.848 8.094 45.476 7.854C44.48 7.134 44.204 6.69 44.648 6.522ZM43.478 5.172C44.534 5.052 45.17 5.01 45.386 5.046C45.602 5.07 45.71 5.22 45.71 5.496C45.71 5.76 45.62 5.94 45.44 6.036C45.26 6.132 45.05 6.114 44.81 5.982C44.582 5.85 44.192 5.832 43.64 5.928C43.52 5.94 43.448 5.958 43.424 5.982C43.412 5.994 43.43 6.042 43.478 6.126C43.55 6.21 43.586 6.354 43.586 6.558C43.586 6.69 43.61 6.798 43.658 6.882C43.706 6.954 43.832 7.092 44.036 7.296C44.336 7.584 44.558 7.812 44.702 7.98C44.858 8.136 45.272 8.388 45.944 8.736C46.616 9.072 47.21 9.33 47.726 9.51C48.254 9.69 48.782 9.912 49.31 10.176C49.838 10.428 50.186 10.566 50.354 10.59C50.51 10.614 50.636 10.686 50.732 10.806C50.828 10.914 50.858 11.016 50.822 11.112C50.798 11.196 50.672 11.292 50.444 11.4C50.216 11.508 50.042 11.562 49.922 11.562C49.826 11.562 49.766 11.586 49.742 11.634C49.718 11.682 49.592 11.748 49.364 11.832L49.058 11.994L48.626 11.778C48.362 11.634 48.206 11.562 48.158 11.562C48.122 11.562 47.864 11.43 47.384 11.166C46.916 10.902 46.652 10.782 46.592 10.806C46.532 10.83 46.472 11.04 46.412 11.436C46.364 11.832 46.358 12.114 46.394 12.282C46.43 12.414 46.43 12.696 46.394 13.128C46.358 13.56 46.37 13.878 46.43 14.082C46.574 14.49 46.586 14.922 46.466 15.378C46.346 15.846 46.118 16.254 45.782 16.602C45.614 16.77 45.494 16.872 45.422 16.908C45.35 16.944 45.266 16.95 45.17 16.926C45.002 16.902 44.696 16.65 44.252 16.17C43.808 15.69 43.586 15.372 43.586 15.216C43.586 15.18 43.526 15.15 43.406 15.126C43.238 15.066 42.938 15.096 42.506 15.216C42.074 15.348 41.858 15.456 41.858 15.54C41.858 15.6 41.804 15.738 41.696 15.954C41.564 16.206 41.444 16.326 41.336 16.314C41.3 16.314 41.282 16.278 41.282 16.206C41.282 16.146 41.234 16.008 41.138 15.792C41.054 15.588 41.036 15.348 41.084 15.072C41.132 14.868 41.162 14.112 41.174 12.804C41.198 11.484 41.192 10.722 41.156 10.518L41.102 10.266L40.67 10.554C40.382 10.746 40.22 10.842 40.184 10.842C40.148 10.842 40.004 10.926 39.752 11.094C39.452 11.298 39.032 11.526 38.492 11.778C37.964 12.018 37.64 12.132 37.52 12.12C37.412 12.108 37.382 12.072 37.43 12.012C37.49 11.94 37.718 11.742 38.114 11.418L39.212 10.554L39.986 9.906C41.186 8.934 42.02 7.704 42.488 6.216C42.5 6.168 42.488 6.132 42.452 6.108C42.428 6.084 42.362 6.072 42.254 6.072C42.074 6.072 41.852 6.114 41.588 6.198C41.336 6.282 41.144 6.294 41.012 6.234C40.88 6.162 40.808 6.096 40.796 6.036C40.796 5.976 40.838 5.892 40.922 5.784C41.126 5.544 41.978 5.34 43.478 5.172ZM43.172 9.402C43.592 9.294 43.922 9.24 44.162 9.24C44.402 9.24 44.522 9.222 44.522 9.186C44.522 9.15 44.456 9.078 44.324 8.97C44.192 8.85 44 8.628 43.748 8.304C43.496 7.98 43.358 7.818 43.334 7.818C43.322 7.818 43.256 7.914 43.136 8.106C43.016 8.286 42.95 8.394 42.938 8.43C42.914 8.502 42.716 8.736 42.344 9.132C42.092 9.42 41.96 9.582 41.948 9.618C41.936 9.642 42.008 9.642 42.164 9.618C42.344 9.594 42.68 9.522 43.172 9.402ZM44.882 13.884C44.882 13.356 44.858 12.642 44.81 11.742C44.762 10.842 44.726 10.38 44.702 10.356C44.678 10.32 44.456 10.302 44.036 10.302C43.616 10.302 43.346 10.314 43.226 10.338C43.058 10.374 42.794 10.428 42.434 10.5L41.894 10.59L41.84 10.878C41.732 11.49 41.726 11.802 41.822 11.814C41.882 11.814 41.99 11.748 42.146 11.616C42.326 11.46 42.572 11.328 42.884 11.22C43.196 11.112 43.478 11.058 43.73 11.058C43.886 11.058 43.988 11.07 44.036 11.094C44.096 11.106 44.144 11.154 44.18 11.238C44.228 11.358 44.222 11.514 44.162 11.706C44.114 11.898 44.036 12.006 43.928 12.03C43.82 12.042 43.598 12.078 43.262 12.138C42.926 12.198 42.728 12.252 42.668 12.3C42.608 12.336 42.446 12.348 42.182 12.336L41.786 12.3V12.768C41.786 13.068 41.792 13.218 41.804 13.218C41.828 13.218 41.93 13.128 42.11 12.948C42.302 12.768 42.578 12.63 42.938 12.534C43.262 12.474 43.478 12.444 43.586 12.444C43.706 12.444 43.82 12.474 43.928 12.534C44.096 12.654 44.12 12.84 44 13.092C43.952 13.2 43.886 13.272 43.802 13.308C43.718 13.332 43.514 13.362 43.19 13.398C42.902 13.434 42.734 13.47 42.686 13.506C42.506 13.638 42.284 13.65 42.02 13.542L41.786 13.452V13.956C41.786 14.244 41.81 14.4 41.858 14.424C41.906 14.436 42.146 14.376 42.578 14.244C42.902 14.148 43.298 14.106 43.766 14.118C44.234 14.13 44.51 14.178 44.594 14.262C44.678 14.406 44.666 14.676 44.558 15.072C44.522 15.18 44.534 15.234 44.594 15.234C44.642 15.234 44.696 15.198 44.756 15.126C44.84 15.042 44.882 14.628 44.882 13.884ZM42.452 0.419999C42.5 0.359999 42.542 0.335999 42.578 0.348C42.626 0.36 42.722 0.42 42.866 0.528C43.25 0.816 43.442 1.062 43.442 1.266C43.442 1.434 43.472 1.542 43.532 1.59C43.604 1.626 43.736 1.62 43.928 1.572C44.396 1.464 44.732 1.5 44.936 1.68C45.152 1.86 45.17 2.13 44.99 2.49C44.93 2.586 44.87 2.646 44.81 2.67C44.75 2.694 44.57 2.706 44.27 2.706C43.922 2.706 43.694 2.736 43.586 2.796C43.478 2.844 43.436 2.946 43.46 3.102L43.478 3.318H44.774C46.19 3.33 47.3 3.426 48.104 3.606C48.584 3.726 48.86 3.774 48.932 3.75C49.016 3.714 49.136 3.756 49.292 3.876C49.448 3.996 49.586 4.068 49.706 4.092C50.066 4.212 50.27 4.434 50.318 4.758C50.366 5.07 50.234 5.358 49.922 5.622C49.61 5.874 49.256 5.856 48.86 5.568C48.512 5.328 48.146 5.298 47.762 5.478C47.594 5.538 47.474 5.586 47.402 5.622C47.33 5.646 47.258 5.676 47.186 5.712C47.114 5.748 47 5.79 46.844 5.838C46.688 5.898 46.61 5.898 46.61 5.838C46.61 5.778 46.676 5.688 46.808 5.568C47.156 5.244 47.36 4.968 47.42 4.74C47.468 4.632 47.432 4.554 47.312 4.506C47.06 4.41 46.484 4.338 45.584 4.29C44.696 4.242 44.042 4.242 43.622 4.29C43.238 4.326 42.866 4.356 42.506 4.38C41.906 4.428 41.222 4.572 40.454 4.812C39.698 5.04 39.212 5.262 38.996 5.478C38.936 5.526 38.87 5.742 38.798 6.126C38.726 6.51 38.69 6.828 38.69 7.08C38.69 7.272 38.594 7.47 38.402 7.674C38.21 7.866 38.084 7.95 38.024 7.926C37.964 7.902 37.844 7.86 37.664 7.8C37.484 7.74 37.376 7.68 37.34 7.62C37.304 7.548 37.262 7.38 37.214 7.116C37.178 6.84 37.16 6.624 37.16 6.468C37.16 6.372 37.37 6.018 37.79 5.406C38.342 4.542 38.672 4.098 38.78 4.074C38.84 4.05 38.912 4.104 38.996 4.236L39.104 4.38L39.5 4.236C39.908 4.044 40.544 3.858 41.408 3.678C41.78 3.594 42.002 3.546 42.074 3.534C42.146 3.51 42.188 3.09 42.2 2.274C42.212 1.23 42.296 0.611999 42.452 0.419999Z" fill="black"/>
</svg>
