<svg width="90" height="13" viewBox="0 0 90 13" fill="none" xmlns="http://www.w3.org/2000/svg">
<path d="M0.00800002 12V0.799999H5.48C6.04533 0.799999 6.56267 0.885333 7.032 1.056C7.512 1.22667 7.92267 1.46667 8.264 1.776C8.60533 2.07467 8.872 2.43733 9.064 2.864C9.256 3.29067 9.352 3.76 9.352 4.272C9.352 4.976 9.14933 5.60533 8.744 6.16C8.34933 6.71467 7.82133 7.12533 7.16 7.392L9.64 12H7.048L4.856 7.712H2.328V12H0.00800002ZM5.272 2.8H2.328V5.808H5.272C5.79467 5.808 6.21067 5.66933 6.52 5.392C6.84 5.11467 7 4.752 7 4.304C7 3.856 6.84 3.49333 6.52 3.216C6.21067 2.93867 5.79467 2.8 5.272 2.8ZM13.7144 12V7.712L9.13837 0.799999H11.8104L14.9464 5.664L18.0984 0.799999H20.6264L16.0344 7.728V12H13.7144ZM18.0297 12L22.6378 0.799999H25.3258L29.8698 12H27.3578L26.2218 9.056H21.5978L20.4457 12H18.0297ZM22.3177 7.2H25.5178L23.9338 3.072L22.3177 7.2ZM30.8205 0.799999H33.0285L38.5965 8.048V0.799999H40.7725V12H38.7245L33.0125 4.512V12H30.8205V0.799999ZM49.4956 12V7.712L44.9196 0.799999H47.5916L50.7276 5.664L53.8796 0.799999H56.4076L51.8156 7.728V12H49.4956ZM53.811 12L58.419 0.799999H61.107L65.651 12H63.139L62.003 9.056H57.379L56.227 12H53.811ZM58.099 7.2H61.299L59.715 3.072L58.099 7.2ZM66.6018 0.799999H68.8098L74.3778 8.048V0.799999H76.5538V12H74.5058L68.7938 4.512V12H66.6018V0.799999ZM89.7061 6.416C89.7061 7.23733 89.5621 8.00533 89.2741 8.72C88.9968 9.424 88.6075 10.032 88.1061 10.544C87.6155 11.0453 87.0235 11.4453 86.3301 11.744C85.6368 12.032 84.8901 12.176 84.0901 12.176C83.2581 12.176 82.4795 12.0267 81.7541 11.728C81.0288 11.4293 80.3995 11.024 79.8661 10.512C79.3435 9.98933 78.9275 9.376 78.6181 8.672C78.3088 7.968 78.1541 7.21067 78.1541 6.4C78.1541 5.58933 78.3035 4.832 78.6021 4.128C78.9115 3.424 79.3275 2.816 79.8501 2.304C80.3835 1.78133 81.0128 1.37067 81.7381 1.072C82.4635 0.773333 83.2368 0.624 84.0581 0.624C84.9861 0.624 85.8608 0.810666 86.6821 1.184C87.5035 1.55733 88.1808 2.06933 88.7141 2.72L87.0981 4.208C86.7035 3.73867 86.2448 3.38133 85.7221 3.136C85.2101 2.88 84.6555 2.752 84.0581 2.752C83.5568 2.752 83.0875 2.848 82.6501 3.04C82.2235 3.22133 81.8501 3.47733 81.5301 3.808C81.2208 4.128 80.9755 4.512 80.7941 4.96C80.6235 5.39733 80.5381 5.87733 80.5381 6.4C80.5381 6.92267 80.6288 7.408 80.8101 7.856C80.9915 8.304 81.2421 8.69333 81.5621 9.024C81.8821 9.344 82.2608 9.6 82.6981 9.792C83.1461 9.97333 83.6208 10.064 84.1221 10.064C84.9115 10.064 85.5888 9.84533 86.1541 9.408C86.7301 8.97067 87.0875 8.41067 87.2261 7.728H83.9141V5.712H89.7061V6.416Z" fill="black"/>
</svg>
