<svg width="100" height="100" viewBox="0 0 100 100" fill="none" xmlns="http://www.w3.org/2000/svg">
<path d="M0 10C0 4.47716 4.47715 0 10 0H90C95.5228 0 100 4.47715 100 10V90C100 95.5228 95.5229 100 90 100H10C4.47716 100 0 95.5229 0 90V10Z" fill="white"/>
<g filter="url(#filter0_i)">
<path d="M33.83 46.86C34.1567 46.4867 34.3433 46.2067 34.39 46.02C34.4833 45.8333 34.95 45.18 35.79 44.06C36.63 42.94 37.1667 42.3567 37.4 42.31C37.54 42.31 37.89 42.6133 38.45 43.22C39.0567 43.78 39.4533 44.27 39.64 44.69C39.8733 45.11 39.8733 45.6467 39.64 46.3C39.4067 46.9533 39.1967 47.3733 39.01 47.56C38.8233 47.7467 38.5667 47.84 38.24 47.84C37.82 47.84 37.33 48.1433 36.77 48.75C36.07 49.5433 34.7633 50.4067 32.85 51.34C32.1033 51.7133 31.4967 52.0867 31.03 52.46C30.5633 52.7867 30.2133 52.95 29.98 52.95C29.7933 52.95 29.6767 52.81 29.63 52.53C29.63 52.25 29.7233 51.9933 29.91 51.76L31.73 49.45L33.83 46.86ZM52.52 42.03C52.9867 41.89 53.4767 41.8667 53.99 41.96C54.55 42.0067 55.6 42.2867 57.14 42.8C60.2667 43.8733 61.83 44.9 61.83 45.88C61.83 46.3933 61.55 47.0467 60.99 47.84C60.4767 48.5867 60.01 49.03 59.59 49.17C59.2633 49.2633 58.89 49.1933 58.47 48.96C58.0967 48.7267 57.1867 48.1433 55.74 47.21C51.8667 44.41 50.7933 42.6833 52.52 42.03ZM47.97 36.78C52.0767 36.3133 54.55 36.15 55.39 36.29C56.23 36.3833 56.65 36.9667 56.65 38.04C56.65 39.0667 56.3 39.7667 55.6 40.14C54.9 40.5133 54.0833 40.4433 53.15 39.93C52.2633 39.4167 50.7467 39.3467 48.6 39.72C48.1333 39.7667 47.8533 39.8367 47.76 39.93C47.7133 39.9767 47.7833 40.1633 47.97 40.49C48.25 40.8167 48.39 41.3767 48.39 42.17C48.39 42.6833 48.4833 43.1033 48.67 43.43C48.8567 43.71 49.3467 44.2467 50.14 45.04C51.3067 46.16 52.17 47.0467 52.73 47.7C53.3367 48.3067 54.9467 49.2867 57.56 50.64C60.1733 51.9467 62.4833 52.95 64.49 53.65C66.5433 54.35 68.5967 55.2133 70.65 56.24C72.7033 57.22 74.0567 57.7567 74.71 57.85C75.3167 57.9433 75.8067 58.2233 76.18 58.69C76.5533 59.11 76.67 59.5067 76.53 59.88C76.4367 60.2067 75.9467 60.58 75.06 61C74.1733 61.42 73.4967 61.63 73.03 61.63C72.6567 61.63 72.4233 61.7233 72.33 61.91C72.2367 62.0967 71.7467 62.3533 70.86 62.68L69.67 63.31L67.99 62.47C66.9633 61.91 66.3567 61.63 66.17 61.63C66.03 61.63 65.0267 61.1167 63.16 60.09C61.34 59.0633 60.3133 58.5967 60.08 58.69C59.8467 58.7833 59.6133 59.6 59.38 61.14C59.1933 62.68 59.17 63.7767 59.31 64.43C59.45 64.9433 59.45 66.04 59.31 67.72C59.17 69.4 59.2167 70.6367 59.45 71.43C60.01 73.0167 60.0567 74.6967 59.59 76.47C59.1233 78.29 58.2367 79.8767 56.93 81.23C56.2767 81.8833 55.81 82.28 55.53 82.42C55.25 82.56 54.9233 82.5833 54.55 82.49C53.8967 82.3967 52.7067 81.4167 50.98 79.55C49.2533 77.6833 48.39 76.4467 48.39 75.84C48.39 75.7 48.1567 75.5833 47.69 75.49C47.0367 75.2567 45.87 75.3733 44.19 75.84C42.51 76.3533 41.67 76.7733 41.67 77.1C41.67 77.3333 41.46 77.87 41.04 78.71C40.5267 79.69 40.06 80.1567 39.64 80.11C39.5 80.11 39.43 79.97 39.43 79.69C39.43 79.4567 39.2433 78.92 38.87 78.08C38.5433 77.2867 38.4733 76.3533 38.66 75.28C38.8467 74.4867 38.9633 71.5467 39.01 66.46C39.1033 61.3267 39.08 58.3633 38.94 57.57L38.73 56.59L37.05 57.71C35.93 58.4567 35.3 58.83 35.16 58.83C35.02 58.83 34.46 59.1567 33.48 59.81C32.3133 60.6033 30.68 61.49 28.58 62.47C26.5267 63.4033 25.2667 63.8467 24.8 63.8C24.38 63.7533 24.2633 63.6133 24.45 63.38C24.6833 63.1 25.57 62.33 27.11 61.07L31.38 57.71L34.39 55.19C39.0567 51.41 42.3 46.6267 44.12 40.84C44.1667 40.6533 44.12 40.5133 43.98 40.42C43.8867 40.3267 43.63 40.28 43.21 40.28C42.51 40.28 41.6467 40.4433 40.62 40.77C39.64 41.0967 38.8933 41.1433 38.38 40.91C37.8667 40.63 37.5867 40.3733 37.54 40.14C37.54 39.9067 37.7033 39.58 38.03 39.16C38.8233 38.2267 42.1367 37.4333 47.97 36.78ZM46.78 53.23C48.4133 52.81 49.6967 52.6 50.63 52.6C51.5633 52.6 52.03 52.53 52.03 52.39C52.03 52.25 51.7733 51.97 51.26 51.55C50.7467 51.0833 50 50.22 49.02 48.96C48.04 47.7 47.5033 47.07 47.41 47.07C47.3633 47.07 47.1067 47.4433 46.64 48.19C46.1733 48.89 45.9167 49.31 45.87 49.45C45.7767 49.73 45.0067 50.64 43.56 52.18C42.58 53.3 42.0667 53.93 42.02 54.07C41.9733 54.1633 42.2533 54.1633 42.86 54.07C43.56 53.9767 44.8667 53.6967 46.78 53.23ZM53.43 70.66C53.43 68.6067 53.3367 65.83 53.15 62.33C52.9633 58.83 52.8233 57.0333 52.73 56.94C52.6367 56.8 51.7733 56.73 50.14 56.73C48.5067 56.73 47.4567 56.7767 46.99 56.87C46.3367 57.01 45.31 57.22 43.91 57.5L41.81 57.85L41.6 58.97C41.18 61.35 41.1567 62.5633 41.53 62.61C41.7633 62.61 42.1833 62.3533 42.79 61.84C43.49 61.2333 44.4467 60.72 45.66 60.3C46.8733 59.88 47.97 59.67 48.95 59.67C49.5567 59.67 49.9533 59.7167 50.14 59.81C50.3733 59.8567 50.56 60.0433 50.7 60.37C50.8867 60.8367 50.8633 61.4433 50.63 62.19C50.4433 62.9367 50.14 63.3567 49.72 63.45C49.3 63.4967 48.4367 63.6367 47.13 63.87C45.8233 64.1033 45.0533 64.3133 44.82 64.5C44.5867 64.64 43.9567 64.6867 42.93 64.64L41.39 64.5V66.32C41.39 67.4867 41.4133 68.07 41.46 68.07C41.5533 68.07 41.95 67.72 42.65 67.02C43.3967 66.32 44.47 65.7833 45.87 65.41C47.13 65.1767 47.97 65.06 48.39 65.06C48.8567 65.06 49.3 65.1767 49.72 65.41C50.3733 65.8767 50.4667 66.6 50 67.58C49.8133 68 49.5567 68.28 49.23 68.42C48.9033 68.5133 48.11 68.63 46.85 68.77C45.73 68.91 45.0767 69.05 44.89 69.19C44.19 69.7033 43.3267 69.75 42.3 69.33L41.39 68.98V70.94C41.39 72.06 41.4833 72.6667 41.67 72.76C41.8567 72.8067 42.79 72.5733 44.47 72.06C45.73 71.6867 47.27 71.5233 49.09 71.57C50.91 71.6167 51.9833 71.8033 52.31 72.13C52.6367 72.69 52.59 73.74 52.17 75.28C52.03 75.7 52.0767 75.91 52.31 75.91C52.4967 75.91 52.7067 75.77 52.94 75.49C53.2667 75.1633 53.43 73.5533 53.43 70.66ZM43.98 18.3C44.1667 18.0667 44.33 17.9733 44.47 18.02C44.6567 18.0667 45.03 18.3 45.59 18.72C47.0833 19.84 47.83 20.7967 47.83 21.59C47.83 22.2433 47.9467 22.6633 48.18 22.85C48.46 22.99 48.9733 22.9667 49.72 22.78C51.54 22.36 52.8467 22.5 53.64 23.2C54.48 23.9 54.55 24.95 53.85 26.35C53.6167 26.7233 53.3833 26.9567 53.15 27.05C52.9167 27.1433 52.2167 27.19 51.05 27.19C49.6967 27.19 48.81 27.3067 48.39 27.54C47.97 27.7267 47.8067 28.1233 47.9 28.73L47.97 29.57H53.01C58.5167 29.6167 62.8333 29.99 65.96 30.69C67.8267 31.1567 68.9 31.3433 69.18 31.25C69.5067 31.11 69.9733 31.2733 70.58 31.74C71.1867 32.2067 71.7233 32.4867 72.19 32.58C73.59 33.0467 74.3833 33.91 74.57 35.17C74.7567 36.3833 74.2433 37.5033 73.03 38.53C71.8167 39.51 70.44 39.44 68.9 38.32C67.5467 37.3867 66.1233 37.27 64.63 37.97C63.9767 38.2033 63.51 38.39 63.23 38.53C62.95 38.6233 62.67 38.74 62.39 38.88C62.11 39.02 61.6667 39.1833 61.06 39.37C60.4533 39.6033 60.15 39.6033 60.15 39.37C60.15 39.1367 60.4067 38.7867 60.92 38.32C62.2733 37.06 63.0667 35.9867 63.3 35.1C63.4867 34.68 63.3467 34.3767 62.88 34.19C61.9 33.8167 59.66 33.5367 56.16 33.35C52.7067 33.1633 50.1633 33.1633 48.53 33.35C47.0367 33.49 45.59 33.6067 44.19 33.7C41.8567 33.8867 39.1967 34.4467 36.21 35.38C33.27 36.2667 31.38 37.13 30.54 37.97C30.3067 38.1567 30.05 38.9967 29.77 40.49C29.49 41.9833 29.35 43.22 29.35 44.2C29.35 44.9467 28.9767 45.7167 28.23 46.51C27.4833 47.2567 26.9933 47.5833 26.76 47.49C26.5267 47.3967 26.06 47.2333 25.36 47C24.66 46.7667 24.24 46.5333 24.1 46.3C23.96 46.02 23.7967 45.3667 23.61 44.34C23.47 43.2667 23.4 42.4267 23.4 41.82C23.4 41.4467 24.2167 40.07 25.85 37.69C27.9967 34.33 29.28 32.6033 29.7 32.51C29.9333 32.4167 30.2133 32.6267 30.54 33.14L30.96 33.7L32.5 33.14C34.0867 32.3933 36.56 31.67 39.92 30.97C41.3667 30.6433 42.23 30.4567 42.51 30.41C42.79 30.3167 42.9533 28.6833 43 25.51C43.0467 21.45 43.3733 19.0467 43.98 18.3Z" fill="url(#paint0_linear)"/>
</g>
<defs>
<filter id="filter0_i" x="23.4" y="18.0083" width="53.6873" height="65.0377" filterUnits="userSpaceOnUse" color-interpolation-filters="sRGB">
<feFlood flood-opacity="0" result="BackgroundImageFix"/>
<feBlend mode="normal" in="SourceGraphic" in2="BackgroundImageFix" result="shape"/>
<feColorMatrix in="SourceAlpha" type="matrix" values="0 0 0 0 0 0 0 0 0 0 0 0 0 0 0 0 0 0 127 0" result="hardAlpha"/>
<feOffset dx="1.5" dy="1.5"/>
<feGaussianBlur stdDeviation="0.25"/>
<feComposite in2="hardAlpha" operator="arithmetic" k2="-1" k3="1"/>
<feColorMatrix type="matrix" values="0 0 0 0 0 0 0 0 0 0 0 0 0 0 0 0 0 0 1 0"/>
<feBlend mode="normal" in2="shape" result="effect1_innerShadow"/>
</filter>
<linearGradient id="paint0_linear" x1="32.1111" y1="20" x2="61.6667" y2="77.1667" gradientUnits="userSpaceOnUse">
<stop stop-color="#EB00FF"/>
<stop offset="0.9999" stop-color="#6300BC"/>
</linearGradient>
</defs>
</svg>
